<svg width="1440" height="989" viewBox="0 0 1440 989" fill="none" xmlns="http://www.w3.org/2000/svg">
<mask id="mask0_625_2018" style="mask-type:alpha" maskUnits="userSpaceOnUse" x="0" y="0" width="1440" height="989">
<rect width="1440" height="989" fill="#D9D9D9"/>
</mask>
<g mask="url(#mask0_625_2018)">
<mask id="path-2-outside-1_625_2018" maskUnits="userSpaceOnUse" x="-249" y="3" width="1938" height="1010" fill="black">
<rect fill="white" x="-249" y="3" width="1938" height="1010"/>
<path d="M1665 989C1665 862.668 1640.56 737.574 1593.07 620.859C1545.58 504.143 1475.97 398.093 1388.22 308.763C1300.46 219.433 1196.29 148.573 1081.64 100.228C966.983 51.8829 844.099 27 720 27C595.901 27 473.017 51.8829 358.364 100.228C243.711 148.573 139.535 219.433 51.784 308.763C-35.9673 398.093 -105.575 504.143 -153.066 620.859C-200.557 737.574 -225 862.668 -225 989L720 989H1665Z"/>
</mask>
<path d="M1665 989C1665 862.668 1640.56 737.574 1593.07 620.859C1545.58 504.143 1475.97 398.093 1388.22 308.763C1300.46 219.433 1196.29 148.573 1081.64 100.228C966.983 51.8829 844.099 27 720 27C595.901 27 473.017 51.8829 358.364 100.228C243.711 148.573 139.535 219.433 51.784 308.763C-35.9673 398.093 -105.575 504.143 -153.066 620.859C-200.557 737.574 -225 862.668 -225 989L720 989H1665Z" fill="#23203C"/>
<path d="M1665 989C1665 862.668 1640.56 737.574 1593.07 620.859C1545.58 504.143 1475.97 398.093 1388.22 308.763C1300.46 219.433 1196.29 148.573 1081.64 100.228C966.983 51.8829 844.099 27 720 27C595.901 27 473.017 51.8829 358.364 100.228C243.711 148.573 139.535 219.433 51.784 308.763C-35.9673 398.093 -105.575 504.143 -153.066 620.859C-200.557 737.574 -225 862.668 -225 989L720 989H1665Z" stroke="url(#paint0_linear_625_2018)" stroke-width="48" mask="url(#path-2-outside-1_625_2018)"/>
</g>
<defs>
<linearGradient id="paint0_linear_625_2018" x1="199" y1="-31" x2="1548.5" y2="436" gradientUnits="userSpaceOnUse">
<stop stop-color="#AB683E"/>
<stop offset="1" stop-color="#724427"/>
</linearGradient>
</defs>
</svg>
