<svg width="15" height="13" viewBox="0 0 15 13" fill="none" xmlns="http://www.w3.org/2000/svg">
<path d="M10.6315 1.29883C9.37386 1.29883 8.28982 1.89657 7.69853 2.88675C7.10724 1.89657 6.02321 1.29883 4.76555 1.29883C3.86354 1.29991 2.99879 1.65872 2.36098 2.29653C1.72317 2.93434 1.36437 3.79909 1.36328 4.70109C1.36328 6.37818 2.41916 8.13093 4.49571 9.90949C5.45451 10.7254 6.48976 11.4469 7.58708 12.0641C7.62132 12.0825 7.65962 12.0922 7.69853 12.0922C7.73745 12.0922 7.77575 12.0825 7.80999 12.0641C8.90731 11.4469 9.94256 10.7254 10.9014 9.90949C12.9779 8.13093 14.0338 6.37818 14.0338 4.70109C14.0327 3.79909 13.6739 2.93434 13.0361 2.29653C12.3983 1.65872 11.5335 1.29991 10.6315 1.29883ZM7.69853 11.5889C6.8773 11.1196 1.83256 8.10746 1.83256 4.70109C1.83349 3.9235 2.1428 3.17803 2.69264 2.62819C3.24248 2.07835 3.98796 1.76904 4.76555 1.76811C6.00385 1.76811 7.04448 2.43155 7.48149 3.49916C7.49917 3.54219 7.52924 3.579 7.56789 3.6049C7.60653 3.63081 7.65201 3.64464 7.69853 3.64464C7.74506 3.64464 7.79053 3.63081 7.82918 3.6049C7.86782 3.579 7.8979 3.54219 7.91558 3.49916C8.35259 2.43155 9.39321 1.76811 10.6315 1.76811C11.4091 1.76904 12.1546 2.07835 12.7044 2.62819C13.2543 3.17803 13.5636 3.9235 13.5645 4.70109C13.5645 8.10336 8.51977 11.122 7.69853 11.5889Z" fill="white"/>
</svg>
