<svg width="58" height="58" viewBox="0 0 58 58" fill="none" xmlns="http://www.w3.org/2000/svg">
<circle cx="29" cy="29" r="29" fill="#569854"/>
<path d="M46.6383 20.7561C46.0903 20.0982 45.4046 19.5687 44.6296 19.2048C43.8545 18.8409 43.0091 18.6515 42.1529 18.6501H33.2601L34.3522 15.8616C34.8065 14.6406 34.9577 13.3277 34.7931 12.0355C34.6284 10.7433 34.1527 9.51028 33.4067 8.44228C32.6608 7.37427 31.6669 6.50314 30.5103 5.9036C29.3536 5.30407 28.0688 4.99403 26.766 5.00009C26.3909 5.00087 26.024 5.10982 25.7092 5.31389C25.3944 5.51795 25.1452 5.80846 24.9914 6.15058L19.4334 18.6501H14.8505C13.2989 18.6501 11.8108 19.2664 10.7136 20.3635C9.61639 21.4606 9 22.9485 9 24.5V38.15C9 39.7015 9.61639 41.1895 10.7136 42.2866C11.8108 43.3837 13.2989 44 14.8505 44H39.6762C41.0448 43.9995 42.37 43.5193 43.4211 42.6428C44.4723 41.7664 45.1828 40.5492 45.4292 39.203L47.9059 25.553C48.0591 24.7094 48.0249 23.8425 47.8059 23.0135C47.5868 22.1846 47.1882 21.4139 46.6383 20.7561ZM18.7508 40.1H14.8505C14.3333 40.1 13.8373 39.8946 13.4715 39.5289C13.1058 39.1632 12.9003 38.6672 12.9003 38.15V24.5C12.9003 23.9829 13.1058 23.4869 13.4715 23.1212C13.8373 22.7555 14.3333 22.55 14.8505 22.55H18.7508V40.1ZM44.1031 24.851L41.6263 38.501C41.5433 38.9553 41.3017 39.3653 40.9445 39.6581C40.5874 39.951 40.1379 40.1075 39.6762 40.1H22.6512V21.0096L27.9556 9.07558C28.5017 9.23475 29.0088 9.50537 29.4449 9.87036C29.8811 10.2354 30.2368 10.6868 30.4897 11.1962C30.7426 11.7056 30.8871 12.2619 30.9142 12.8299C30.9412 13.398 30.8502 13.9655 30.6469 14.4966L29.6133 17.2851C29.3931 17.8745 29.3187 18.5084 29.3966 19.1327C29.4745 19.7571 29.7023 20.3533 30.0605 20.8706C30.4188 21.3878 30.8969 21.8107 31.4541 22.1032C32.0112 22.3956 32.6309 22.5489 33.2601 22.55H42.1529C42.4394 22.5496 42.7225 22.6122 42.982 22.7336C43.2415 22.8549 43.4712 23.0319 43.6545 23.252C43.8424 23.4691 43.98 23.725 44.0575 24.0014C44.1351 24.2778 44.1506 24.5679 44.1031 24.851Z" fill="white"/>
<path d="M46.6383 20.7561C46.0903 20.0982 45.4046 19.5687 44.6296 19.2048C43.8545 18.8409 43.0091 18.6515 42.1529 18.6501H33.2601L34.3522 15.8616C34.8065 14.6406 34.9577 13.3277 34.7931 12.0355C34.6284 10.7433 34.1527 9.51028 33.4067 8.44228C32.6608 7.37427 31.6669 6.50314 30.5103 5.9036C29.3536 5.30407 28.0688 4.99403 26.766 5.00009C26.3909 5.00087 26.024 5.10982 25.7092 5.31389C25.3944 5.51795 25.1452 5.80846 24.9914 6.15058L19.4334 18.6501H14.8505C13.2989 18.6501 11.8108 19.2664 10.7136 20.3635C9.61639 21.4606 9 22.9485 9 24.5V38.15C9 39.7015 9.61639 41.1895 10.7136 42.2866C11.8108 43.3837 13.2989 44 14.8505 44H39.6762C41.0448 43.9995 42.37 43.5193 43.4211 42.6428C44.4723 41.7664 45.1828 40.5492 45.4292 39.203L47.9059 25.553C48.0591 24.7094 48.0249 23.8425 47.8059 23.0135C47.5868 22.1846 47.1882 21.4139 46.6383 20.7561ZM18.7508 40.1H14.8505C14.3333 40.1 13.8373 39.8946 13.4715 39.5289C13.1058 39.1632 12.9003 38.6672 12.9003 38.15V24.5C12.9003 23.9829 13.1058 23.4869 13.4715 23.1212C13.8373 22.7555 14.3333 22.55 14.8505 22.55H18.7508V40.1ZM44.1031 24.851L41.6263 38.501C41.5433 38.9553 41.3017 39.3653 40.9445 39.6581C40.5874 39.951 40.1379 40.1075 39.6762 40.1H22.6512V21.0096L27.9556 9.07558C28.5017 9.23475 29.0088 9.50537 29.4449 9.87036C29.8811 10.2354 30.2368 10.6868 30.4897 11.1962C30.7426 11.7056 30.8871 12.2619 30.9142 12.8299C30.9412 13.398 30.8502 13.9655 30.6469 14.4966L29.6133 17.2851C29.3931 17.8745 29.3187 18.5084 29.3966 19.1327C29.4745 19.7571 29.7023 20.3533 30.0605 20.8706C30.4188 21.3878 30.8969 21.8107 31.4541 22.1032C32.0112 22.3956 32.6309 22.5489 33.2601 22.55H42.1529C42.4394 22.5496 42.7225 22.6122 42.982 22.7336C43.2415 22.8549 43.4712 23.0319 43.6545 23.252C43.8424 23.4691 43.98 23.725 44.0575 24.0014C44.1351 24.2778 44.1506 24.5679 44.1031 24.851Z" fill="white"/>
</svg>
