<svg width="61" height="28" viewBox="0 0 61 28" fill="none" xmlns="http://www.w3.org/2000/svg">
<rect x="0.548828" y="0.158203" width="59.6853" height="27.075" rx="13.5375" fill="#19172B"/>
<path d="M19.6315 8.29883C18.3739 8.29883 17.2898 8.89657 16.6985 9.88675C16.1072 8.89657 15.0232 8.29883 13.7655 8.29883C12.8635 8.29991 11.9988 8.65872 11.361 9.29653C10.7232 9.93434 10.3644 10.7991 10.3633 11.7011C10.3633 13.3782 11.4192 15.1309 13.4957 16.9095C14.4545 17.7254 15.4898 18.4469 16.5871 19.0641C16.6213 19.0825 16.6596 19.0922 16.6985 19.0922C16.7374 19.0922 16.7757 19.0825 16.81 19.0641C17.9073 18.4469 18.9426 17.7254 19.9014 16.9095C21.9779 15.1309 23.0338 13.3782 23.0338 11.7011C23.0327 10.7991 22.6739 9.93434 22.0361 9.29653C21.3983 8.65872 20.5335 8.29991 19.6315 8.29883ZM16.6985 18.5889C15.8773 18.1196 10.8326 15.1075 10.8326 11.7011C10.8335 10.9235 11.1428 10.178 11.6926 9.62819C12.2425 9.07835 12.988 8.76904 13.7655 8.76811C15.0039 8.76811 16.0445 9.43155 16.4815 10.4992C16.4992 10.5422 16.5292 10.579 16.5679 10.6049C16.6065 10.6308 16.652 10.6446 16.6985 10.6446C16.7451 10.6446 16.7905 10.6308 16.8292 10.6049C16.8678 10.579 16.8979 10.5422 16.9156 10.4992C17.3526 9.43155 18.3932 8.76811 19.6315 8.76811C20.4091 8.76904 21.1546 9.07835 21.7044 9.62819C22.2543 10.178 22.5636 10.9235 22.5645 11.7011C22.5645 15.1034 17.5198 18.122 16.6985 18.5889Z" fill="white"/>
<path d="M38.7701 9.02268V18.6958H37.5578V9.49989H38.1382L32.3472 15.9744L32.3343 15.523H40.6532V16.529H31.3025V15.6391L37.2353 9.02268H38.7701ZM42.5941 9.02268H49.4039V10.0287H43.0326L43.5356 9.65466L42.9939 14.0269L42.5812 14.0398C42.7961 13.7303 43.0799 13.4465 43.4324 13.1886C43.7935 12.922 44.2148 12.7071 44.6963 12.5437C45.1778 12.3803 45.7066 12.2986 46.2827 12.2986C47.134 12.2986 47.8476 12.4448 48.4237 12.7372C48.9998 13.0295 49.434 13.4207 49.7264 13.9108C50.0273 14.4009 50.1778 14.9512 50.1778 15.5617C50.1778 16.2066 50.0015 16.7784 49.649 17.2771C49.2964 17.7672 48.802 18.1541 48.1658 18.4379C47.5295 18.7216 46.7814 18.8635 45.9216 18.8635C45.0446 18.8635 44.2879 18.7345 43.6516 18.4765C43.0154 18.21 42.5081 17.8532 42.1297 17.4061C41.76 16.9589 41.5236 16.4559 41.4204 15.897H42.6456C42.7832 16.4903 43.1314 16.9632 43.6903 17.3158C44.2578 17.6683 45.0016 17.8446 45.9216 17.8446C46.5321 17.8446 47.0609 17.75 47.508 17.5608C47.9637 17.3717 48.3162 17.1094 48.5656 16.7741C48.8235 16.4301 48.9525 16.026 48.9525 15.5617C48.9525 15.106 48.8407 14.7105 48.6172 14.3751C48.3936 14.0312 48.0712 13.7647 47.6499 13.5755C47.2371 13.3863 46.7298 13.2918 46.128 13.2918C45.6035 13.2918 45.1306 13.3648 44.7092 13.511C44.2879 13.6486 43.9225 13.8248 43.613 14.0398C43.3034 14.2548 43.0498 14.4826 42.852 14.7234H41.8976L42.5941 9.02268Z" fill="white"/>
</svg>
