<svg width="1447" height="1292" viewBox="0 0 1447 1292" fill="none" xmlns="http://www.w3.org/2000/svg">
<mask id="mask0_931_2451" style="mask-type:alpha" maskUnits="userSpaceOnUse" x="0" y="0" width="1447" height="1292">
<rect width="1447" height="1292" fill="#D9D9D9"/>
</mask>
<g mask="url(#mask0_931_2451)">
<path d="M1447 -318.017V1208.43C1447 1252.5 1422.41 1307.86 1392.5 1287.16C1371.55 1272.6 1361.07 1252.54 1354.06 1232.14C1342.9 1199.68 1340.57 1166.41 1318.82 1153.48C1293.65 1138.48 1295.56 1181.65 1277.98 1195.56C1271.04 1201.03 1261.05 1201.98 1245.14 1192.93C1223.93 1180.84 1213.3 1163.44 1206.39 1145.51C1194.99 1116.09 1193.59 1085.32 1171.64 1074.75C1146.72 1062.73 1147.32 1101.84 1130.63 1117.31C1123.73 1123.72 1113.85 1126.09 1097.96 1119.06C1076.42 1109.51 1065.96 1092.79 1058.97 1075.26L1058.95 1075.22C1048.32 1048.61 1045.68 1020.24 1024.44 1012.64C999.539 1003.76 999.648 1041.45 983.03 1058.44C976.149 1065.5 966.375 1068.98 950.758 1064.11C932.519 1058.41 922.253 1046.45 915.245 1032.91C901.831 1006.9 900.356 974.916 877.258 969.715C853.65 964.548 853.377 996.329 839.179 1014.8C832.171 1023.92 821.796 1029.77 803.558 1026.39C785.01 1022.94 774.598 1013.01 767.627 1001.16C766.098 998.592 764.751 995.957 763.513 993.255C749.971 974.139 747.859 944.756 727.892 943.844C727.601 943.844 727.291 943.81 727 943.81C726.727 943.81 726.417 943.844 726.126 943.844C706.796 944.722 704.193 972.282 691.779 991.364C691.36 992.006 690.942 992.647 690.505 993.255C683.534 1008.39 673.013 1022.2 650.442 1026.39C632.404 1029.73 622.047 1024.02 615.057 1015.07C600.641 996.667 600.478 964.514 576.76 969.715C553.808 974.882 552.206 1006.46 539.009 1032.4C532.002 1046.15 521.736 1058.34 503.242 1064.11C483.129 1070.4 472.717 1062.8 465.655 1051.55C454.024 1033.11 451.494 1004.81 429.56 1012.64C405.133 1021.39 405.333 1057.63 389.643 1087.05C382.708 1100.05 372.679 1111.7 356.061 1119.06C337.385 1127.3 327.01 1122.61 320.002 1113.63C306.642 1096.43 305.477 1063.57 282.379 1074.75C258.279 1086.37 258.953 1122.27 243.972 1154.05V1154.09C237.019 1168.88 226.662 1182.79 208.861 1192.93C193.152 1201.84 183.214 1201.07 176.279 1195.73C158.441 1182.09 160.498 1138.42 135.179 1153.48C113.591 1166.35 111.134 1199.18 100.194 1231.43C93.1685 1252.07 82.6841 1272.43 61.4969 1287.16C31.591 1307.86 7 1252.5 7 1208.43V-318.017C45.7339 -318.017 84.4497 -318.017 123.165 -318.051C133.322 -318.017 143.497 -318.017 153.654 -318.051C191.041 -318.017 228.428 -318.051 265.833 -318.084H298.651C335.911 -318.118 373.207 -318.152 410.503 -318.22C422.079 -318.22 433.656 -318.253 445.232 -318.287H454.77V-318.388H999.23V-318.287H1003.54C1015.12 -318.253 1026.7 -318.253 1038.27 -318.22C1076.22 -318.152 1114.14 -318.118 1152.05 -318.084H1184.67C1223.32 -318.051 1261.96 -318.051 1300.58 -318.051C1310.74 -318.017 1320.91 -318.017 1331.07 -318.051C1369.71 -318.017 1408.36 -318.017 1447 -318.017Z" fill="#B10000"/>
<path d="M1206.26 1144.94C1194.85 1117.99 1193.45 1089.82 1171.46 1080.14C1146.5 1069.12 1147.11 1104.94 1130.39 1119.11C1134.14 884.527 1137.99 649.884 1141.75 414.499C1144.97 211.529 1148.42 8.31244 1151.85 -195.461C1152.54 -236.631 1153.23 -277.8 1153.92 -319C1163.42 -319 1173.05 -319 1182.55 -318.783C1183.18 -277.707 1183.84 -236.6 1184.51 -195.461C1187.81 10.5085 1191.28 217.004 1194.52 423.624C1198.28 663.432 1202.31 903.983 1206.26 1144.94Z" fill="#870000"/>
<path d="M1354.06 1232.14C1342.9 1200.95 1340.57 1168.98 1318.82 1156.55C1293.65 1142.14 1295.56 1183.62 1277.98 1196.99C1281.74 948.484 1285.64 699.979 1289.41 450.63C1292.98 215.074 1296.8 -20.8714 1300.58 -257.498C1300.91 -277.977 1301.24 -298.488 1301.57 -319C1311.05 -319 1320.66 -319 1330.14 -318.773C1330.45 -298.359 1330.76 -277.945 1331.07 -257.498C1334.68 -18.8268 1338.52 220.624 1342.1 460.204C1345.93 716.823 1350.04 974.253 1354.06 1232.14Z" fill="#870000"/>
<path d="M1058.95 1075.22C1048.32 1052.02 1045.68 1027.29 1024.44 1020.66C999.54 1012.92 999.649 1045.78 983.031 1060.59C986.835 833.764 990.73 606.91 994.534 379.29C997.41 206.558 1000.47 33.6197 1003.54 -139.731C1004.58 -199.418 1005.64 -259.194 1006.69 -319C1016.18 -319 1025.79 -319 1035.27 -318.794C1036.25 -259.135 1037.25 -199.418 1038.27 -139.672C1041.26 35.9165 1044.32 211.917 1047.23 387.976C1050.98 616.45 1055.02 845.631 1058.95 1075.22Z" fill="#870000"/>
<path d="M915.245 1032.91C901.83 1010.99 900.356 984.032 877.257 979.649C853.649 975.294 853.376 1002.08 839.179 1017.65C843.001 797.364 846.915 577.052 850.737 355.999C853.395 202.236 856.198 48.3016 859.019 -105.946C860.311 -176.907 861.604 -247.896 862.896 -319C872.379 -319 881.99 -319 891.473 -318.801C892.675 -247.925 893.93 -176.964 895.168 -105.946C897.935 50.6072 900.756 207.473 903.432 364.396C907.2 586.644 911.259 809.575 915.245 1032.91Z" fill="#870000"/>
<path d="M767.869 1001.54C766.34 999.412 764.992 997.228 763.754 994.988C750.207 979.137 748.094 954.774 728.119 954.017C727.828 954.017 727.519 953.989 727.227 953.989C726.954 953.989 726.645 954.017 726.353 954.017C707.015 954.746 704.412 977.597 691.993 993.419C695.799 777.563 699.714 561.706 703.519 345.093C706.087 199.387 708.763 53.5407 711.495 -92.5854C712.879 -167.973 714.281 -243.444 715.683 -319C725.17 -319 734.784 -319 744.271 -318.804C745.582 -243.472 746.929 -168.057 748.277 -92.5854C750.935 55.8651 753.648 204.568 756.234 353.354C759.948 568.847 763.954 785.012 767.869 1001.54Z" fill="#870000"/>
<path d="M615.058 1017.8C600.642 1002.28 600.478 975.189 576.761 979.572C553.808 983.927 552.206 1010.54 539.01 1032.4C542.978 809.224 547.037 586.448 550.823 364.356C553.499 207.442 556.302 50.5852 559.068 -105.958C560.306 -176.972 561.562 -247.929 562.763 -318.801C572.265 -319 581.857 -319 591.341 -319C592.633 -247.901 593.925 -176.915 595.218 -105.958C598.039 48.2798 600.842 202.205 603.5 355.959C607.322 577.084 611.235 797.441 615.058 1017.8Z" fill="#870000"/>
<path d="M465.771 1056.58C454.16 1040.48 451.635 1015.77 429.74 1022.61C405.357 1030.25 405.557 1061.89 389.895 1087.58C393.892 854.2 397.98 621.235 401.796 389.007C404.685 212.691 407.737 36.434 410.717 -139.41C411.734 -199.244 412.734 -259.048 413.715 -318.793C423.199 -319 432.775 -319 442.241 -319C443.295 -259.107 444.349 -199.244 445.384 -139.469C448.455 34.1339 451.507 207.324 454.378 380.308C458.139 606.255 461.991 831.434 465.771 1056.58Z" fill="#870000"/>
<path d="M320.003 1117.15C306.642 1101.46 305.477 1071.46 282.379 1081.67C258.279 1092.27 258.953 1125.04 243.973 1154.05C247.995 909.211 252.109 664.802 255.95 421.164C259.153 217.294 262.557 13.5174 265.833 -189.705C266.525 -232.772 267.217 -275.778 267.89 -318.784C277.392 -319 286.984 -319 296.467 -319C297.195 -275.871 297.924 -232.772 298.652 -189.705C302.037 11.3286 305.441 211.838 308.626 412.069C312.376 647.631 316.235 882.39 320.003 1117.15Z" fill="#870000"/>
<path d="M176.28 1197.12C158.442 1184.01 160.499 1142.05 135.18 1156.52C113.592 1168.89 111.135 1200.43 100.195 1231.43C104.2 973.775 108.313 716.576 112.154 460.189C115.722 220.614 119.562 -18.8324 123.166 -257.5C123.476 -277.946 123.785 -298.359 124.095 -318.773C133.596 -319 143.189 -319 152.672 -319C152.999 -298.489 153.327 -277.978 153.655 -257.5C157.441 -20.877 161.263 215.064 164.831 450.615C168.617 700.025 172.494 948.59 176.28 1197.12Z" fill="#870000"/>
</g>
</svg>
