<svg width="151" height="375" viewBox="0 0 151 375" fill="none" xmlns="http://www.w3.org/2000/svg">
<mask id="mask0_1000_729" style="mask-type:alpha" maskUnits="userSpaceOnUse" x="0" y="0" width="151" height="375">
<rect x="0.799805" width="150" height="375" fill="#D9D9D9"/>
</mask>
<g mask="url(#mask0_1000_729)">
<mask id="mask1_1000_729" style="mask-type:luminance" maskUnits="userSpaceOnUse" x="0" y="0" width="150" height="647">
<path d="M149.907 0.457275H0.800476V646.189H149.907V0.457275Z" fill="white"/>
</mask>
<g mask="url(#mask1_1000_729)">
<path d="M0.801453 645.99L91.0607 645.792C91.0607 645.792 91.2595 334.457 29.0323 208.809C96.031 177 149.908 0.45752 149.908 0.45752H0.801453V645.99Z" fill="#B00201"/>
<path d="M61.7295 645.791C64.619 646.189 66.2092 645.791 69.8939 645.791C70.5831 549.17 63.8233 349.566 23.7703 208.809C23.5873 207.326 19.4406 207.321 19.582 208.809C54.2806 348.771 60.6426 549.568 61.7295 645.791Z" fill="#870801"/>
<path d="M34.6916 645.791C37.5811 646.189 39.1713 645.791 42.856 645.791C43.5451 549.17 42.7499 349.566 13.0348 208.61C12.8518 207.127 8.90399 207.519 9.04538 209.008C29.2311 350.361 33.6046 549.567 34.6916 645.791Z" fill="#870801"/>
<path d="M9.24372 645.791C12.1332 646.189 13.7234 645.791 17.4081 645.791C18.0973 549.17 22.0737 351.952 4.28682 208.412C4.10386 206.928 0.156 207.321 0.297396 208.809C8.55457 353.542 8.15674 549.568 9.24372 645.791Z" fill="#870801"/>
<path d="M112.624 -0.735502C112.865 -3.63971 120.89 -3.64925 120.788 -0.735502C119.092 47.7739 39.1709 211.195 20.4896 208.412C19.5886 209.406 26.0492 207.815 20.7743 208.213C36.785 191.91 108.753 45.7858 112.624 -0.735502Z" fill="#870801"/>
<path d="M72.862 -0.735502C73.1036 -3.63971 81.1284 -3.64925 81.0264 -0.735502C79.33 47.7739 30.7215 208.71 8.75999 208.61C7.85894 209.604 15.1149 205.032 9.04462 208.412C25.8507 191.91 68.9917 45.7858 72.862 -0.735502Z" fill="#870801"/>
<path d="M33.1003 -0.735502C33.3419 -3.63971 41.3667 -3.64925 41.2647 -0.735502C39.5683 47.7739 20.4829 208.113 -0.584167 208.412C-1.48522 209.406 4.97541 207.815 -0.29953 208.213C14.8165 190.221 29.23 45.7858 33.1003 -0.735502Z" fill="#870801"/>
<path d="M32.8094 213.183C34.7641 212.821 34.7641 207.58 32.8094 207.219C20.7814 207.219 0.602314 207.219 0.602314 207.219V213.183C0.602314 213.183 21.4773 213.183 32.8094 213.183Z" fill="#870801"/>
</g>
</g>
</svg>
