<svg width="1440" height="99" viewBox="0 0 1440 99" fill="none" xmlns="http://www.w3.org/2000/svg">
<path d="M47.7129 27.4257C55.2863 27.4257 61.4257 21.2863 61.4257 13.7129C61.4257 6.13947 55.2863 0 47.7129 0C40.1395 0 34 6.13947 34 13.7129C34 21.2863 40.1395 27.4257 47.7129 27.4257Z" fill="#492D4F"/>
<path d="M47.7129 5.34115C52.3287 5.34115 56.0846 9.09705 56.0846 13.7129C56.0846 18.3287 52.3287 22.0846 47.7129 22.0846C43.0971 22.0846 39.3411 18.3287 39.3411 13.7129C39.3411 9.09705 43.0971 5.34115 47.7129 5.34115ZM47.7129 0C40.1391 0 34 6.13912 34 13.7129C34 21.2866 40.1391 27.4257 47.7129 27.4257C55.2866 27.4257 61.4257 21.2866 61.4257 13.7129C61.4257 6.13912 55.2866 0 47.7129 0Z" fill="#F5B800"/>
<path d="M242.139 27.4257C249.712 27.4257 255.852 21.2863 255.852 13.7129C255.852 6.13946 249.712 0 242.139 0C234.565 0 228.426 6.13946 228.426 13.7129C228.426 21.2863 234.565 27.4257 242.139 27.4257Z" fill="#23203C"/>
<path d="M242.139 5.34115C246.754 5.34115 250.51 9.09705 250.51 13.7129C250.51 18.3287 246.754 22.0846 242.139 22.0846C237.523 22.0846 233.767 18.3287 233.767 13.7129C233.767 9.09705 237.523 5.34115 242.139 5.34115ZM242.139 0C234.565 0 228.426 6.13912 228.426 13.7129C228.426 21.2866 234.565 27.4257 242.139 27.4257C249.712 27.4257 255.852 21.2866 255.852 13.7129C255.852 6.13912 249.712 0 242.139 0Z" fill="#F5B800"/>
<path d="M436.564 27.4257C444.138 27.4257 450.277 21.2863 450.277 13.7129C450.277 6.13947 444.138 0 436.564 0C428.991 0 422.852 6.13947 422.852 13.7129C422.852 21.2863 428.991 27.4257 436.564 27.4257Z" fill="#492D4F"/>
<path d="M436.564 5.34115C441.18 5.34115 444.936 9.09705 444.936 13.7129C444.936 18.3287 441.18 22.0846 436.564 22.0846C431.949 22.0846 428.193 18.3287 428.193 13.7129C428.193 9.09705 431.949 5.34115 436.564 5.34115ZM436.564 0C428.991 0 422.852 6.13912 422.852 13.7129C422.852 21.2866 428.991 27.4257 436.564 27.4257C444.138 27.4257 450.277 21.2866 450.277 13.7129C450.277 6.13912 444.138 0 436.564 0Z" fill="#F5B800"/>
<path d="M630.99 27.4257C638.564 27.4257 644.703 21.2863 644.703 13.7129C644.703 6.13947 638.564 0 630.99 0C623.417 0 617.277 6.13947 617.277 13.7129C617.277 21.2863 623.417 27.4257 630.99 27.4257Z" fill="#492D4F"/>
<path d="M630.99 5.34115C635.606 5.34115 639.362 9.09705 639.362 13.7129C639.362 18.3287 635.606 22.0846 630.99 22.0846C626.374 22.0846 622.618 18.3287 622.618 13.7129C622.618 9.09705 626.374 5.34115 630.99 5.34115ZM630.99 0C623.416 0 617.277 6.13912 617.277 13.7129C617.277 21.2866 623.416 27.4257 630.99 27.4257C638.564 27.4257 644.703 21.2866 644.703 13.7129C644.703 6.13912 638.564 0 630.99 0Z" fill="#F5B800"/>
<path d="M825.416 27.4257C832.989 27.4257 839.129 21.2863 839.129 13.7129C839.129 6.13947 832.989 0 825.416 0C817.843 0 811.703 6.13947 811.703 13.7129C811.703 21.2863 817.843 27.4257 825.416 27.4257Z" fill="#492D4F"/>
<path d="M825.416 5.34115C830.032 5.34115 833.788 9.09705 833.788 13.7129C833.788 18.3287 830.032 22.0846 825.416 22.0846C820.8 22.0846 817.044 18.3287 817.044 13.7129C817.044 9.09705 820.8 5.34115 825.416 5.34115ZM825.416 0C817.842 0 811.703 6.13912 811.703 13.7129C811.703 21.2866 817.842 27.4257 825.416 27.4257C832.99 27.4257 839.129 21.2866 839.129 13.7129C839.129 6.13912 832.99 0 825.416 0Z" fill="#F5B800"/>
<path d="M1019.84 27.4257C1027.42 27.4257 1033.55 21.2863 1033.55 13.7129C1033.55 6.13947 1027.42 0 1019.84 0C1012.27 0 1006.13 6.13947 1006.13 13.7129C1006.13 21.2863 1012.27 27.4257 1019.84 27.4257Z" fill="#492D4F"/>
<path d="M1019.84 5.34115C1024.46 5.34115 1028.21 9.09705 1028.21 13.7129C1028.21 18.3287 1024.46 22.0846 1019.84 22.0846C1015.23 22.0846 1011.47 18.3287 1011.47 13.7129C1011.47 9.09705 1015.23 5.34115 1019.84 5.34115ZM1019.84 0C1012.27 0 1006.13 6.13912 1006.13 13.7129C1006.13 21.2866 1012.27 27.4257 1019.84 27.4257C1027.42 27.4257 1033.55 21.2866 1033.55 13.7129C1033.55 6.13912 1027.42 0 1019.84 0Z" fill="#F5B800"/>
<path d="M1214.27 27.4257C1221.84 27.4257 1227.98 21.2863 1227.98 13.7129C1227.98 6.13947 1221.84 0 1214.27 0C1206.69 0 1200.55 6.13947 1200.55 13.7129C1200.55 21.2863 1206.69 27.4257 1214.27 27.4257Z" fill="#492D4F"/>
<path d="M1214.27 5.34115C1218.88 5.34115 1222.64 9.09705 1222.64 13.7129C1222.64 18.3287 1218.88 22.0846 1214.27 22.0846C1209.65 22.0846 1205.9 18.3287 1205.9 13.7129C1205.9 9.09705 1209.65 5.34115 1214.27 5.34115ZM1214.27 0C1206.69 0 1200.55 6.13912 1200.55 13.7129C1200.55 21.2866 1206.69 27.4257 1214.27 27.4257C1221.84 27.4257 1227.98 21.2866 1227.98 13.7129C1227.98 6.13912 1221.84 0 1214.27 0Z" fill="#F5B800"/>
<path d="M1408.69 27.4257C1416.27 27.4257 1422.41 21.2863 1422.41 13.7129C1422.41 6.13947 1416.27 0 1408.69 0C1401.12 0 1394.98 6.13947 1394.98 13.7129C1394.98 21.2863 1401.12 27.4257 1408.69 27.4257Z" fill="#492D4F"/>
<path d="M1408.69 5.34115C1413.31 5.34115 1417.07 9.09705 1417.07 13.7129C1417.07 18.3287 1413.31 22.0846 1408.69 22.0846C1404.08 22.0846 1400.32 18.3287 1400.32 13.7129C1400.32 9.09705 1404.08 5.34115 1408.69 5.34115ZM1408.69 0C1401.12 0 1394.98 6.13912 1394.98 13.7129C1394.98 21.2866 1401.12 27.4257 1408.69 27.4257C1416.27 27.4257 1422.41 21.2866 1422.41 13.7129C1422.41 6.13912 1416.27 0 1408.69 0Z" fill="#F5B800"/>
<path d="M47.7129 98.4257C55.2863 98.4257 61.4257 92.2863 61.4257 84.7129C61.4257 77.1395 55.2863 71 47.7129 71C40.1395 71 34 77.1395 34 84.7129C34 92.2863 40.1395 98.4257 47.7129 98.4257Z" fill="#492D4F"/>
<path d="M47.7129 76.3411C52.3287 76.3411 56.0846 80.0971 56.0846 84.7129C56.0846 89.3287 52.3287 93.0846 47.7129 93.0846C43.0971 93.0846 39.3411 89.3287 39.3411 84.7129C39.3411 80.0971 43.0971 76.3411 47.7129 76.3411ZM47.7129 71C40.1391 71 34 77.1391 34 84.7129C34 92.2866 40.1391 98.4257 47.7129 98.4257C55.2866 98.4257 61.4257 92.2866 61.4257 84.7129C61.4257 77.1391 55.2866 71 47.7129 71Z" fill="#F5B800"/>
<path d="M242.139 98.4257C249.712 98.4257 255.852 92.2863 255.852 84.7129C255.852 77.1395 249.712 71 242.139 71C234.565 71 228.426 77.1395 228.426 84.7129C228.426 92.2863 234.565 98.4257 242.139 98.4257Z" fill="#23203C"/>
<path d="M242.139 76.3411C246.754 76.3411 250.51 80.0971 250.51 84.7129C250.51 89.3287 246.754 93.0846 242.139 93.0846C237.523 93.0846 233.767 89.3287 233.767 84.7129C233.767 80.0971 237.523 76.3411 242.139 76.3411ZM242.139 71C234.565 71 228.426 77.1391 228.426 84.7129C228.426 92.2866 234.565 98.4257 242.139 98.4257C249.712 98.4257 255.852 92.2866 255.852 84.7129C255.852 77.1391 249.712 71 242.139 71Z" fill="#F5B800"/>
<path d="M436.564 98.4257C444.138 98.4257 450.277 92.2863 450.277 84.7129C450.277 77.1395 444.138 71 436.564 71C428.991 71 422.852 77.1395 422.852 84.7129C422.852 92.2863 428.991 98.4257 436.564 98.4257Z" fill="#492D4F"/>
<path d="M436.564 76.3411C441.18 76.3411 444.936 80.0971 444.936 84.7129C444.936 89.3287 441.18 93.0846 436.564 93.0846C431.949 93.0846 428.193 89.3287 428.193 84.7129C428.193 80.0971 431.949 76.3411 436.564 76.3411ZM436.564 71C428.991 71 422.852 77.1391 422.852 84.7129C422.852 92.2866 428.991 98.4257 436.564 98.4257C444.138 98.4257 450.277 92.2866 450.277 84.7129C450.277 77.1391 444.138 71 436.564 71Z" fill="#F5B800"/>
<path d="M630.99 98.4257C638.564 98.4257 644.703 92.2863 644.703 84.7129C644.703 77.1395 638.564 71 630.99 71C623.417 71 617.277 77.1395 617.277 84.7129C617.277 92.2863 623.417 98.4257 630.99 98.4257Z" fill="#492D4F"/>
<path d="M630.99 76.3411C635.606 76.3411 639.362 80.0971 639.362 84.7129C639.362 89.3287 635.606 93.0846 630.99 93.0846C626.374 93.0846 622.618 89.3287 622.618 84.7129C622.618 80.0971 626.374 76.3411 630.99 76.3411ZM630.99 71C623.416 71 617.277 77.1391 617.277 84.7129C617.277 92.2866 623.416 98.4257 630.99 98.4257C638.564 98.4257 644.703 92.2866 644.703 84.7129C644.703 77.1391 638.564 71 630.99 71Z" fill="#F5B800"/>
<path d="M825.416 98.4257C832.989 98.4257 839.129 92.2863 839.129 84.7129C839.129 77.1395 832.989 71 825.416 71C817.843 71 811.703 77.1395 811.703 84.7129C811.703 92.2863 817.843 98.4257 825.416 98.4257Z" fill="#492D4F"/>
<path d="M825.416 76.3411C830.032 76.3411 833.788 80.0971 833.788 84.7129C833.788 89.3287 830.032 93.0846 825.416 93.0846C820.8 93.0846 817.044 89.3287 817.044 84.7129C817.044 80.0971 820.8 76.3411 825.416 76.3411ZM825.416 71C817.842 71 811.703 77.1391 811.703 84.7129C811.703 92.2866 817.842 98.4257 825.416 98.4257C832.99 98.4257 839.129 92.2866 839.129 84.7129C839.129 77.1391 832.99 71 825.416 71Z" fill="#F5B800"/>
<path d="M1019.84 98.4257C1027.42 98.4257 1033.55 92.2863 1033.55 84.7129C1033.55 77.1395 1027.42 71 1019.84 71C1012.27 71 1006.13 77.1395 1006.13 84.7129C1006.13 92.2863 1012.27 98.4257 1019.84 98.4257Z" fill="#492D4F"/>
<path d="M1019.84 76.3411C1024.46 76.3411 1028.21 80.0971 1028.21 84.7129C1028.21 89.3287 1024.46 93.0846 1019.84 93.0846C1015.23 93.0846 1011.47 89.3287 1011.47 84.7129C1011.47 80.0971 1015.23 76.3411 1019.84 76.3411ZM1019.84 71C1012.27 71 1006.13 77.1391 1006.13 84.7129C1006.13 92.2866 1012.27 98.4257 1019.84 98.4257C1027.42 98.4257 1033.55 92.2866 1033.55 84.7129C1033.55 77.1391 1027.42 71 1019.84 71Z" fill="#F5B800"/>
<path d="M1214.27 98.4257C1221.84 98.4257 1227.98 92.2863 1227.98 84.7129C1227.98 77.1395 1221.84 71 1214.27 71C1206.69 71 1200.55 77.1395 1200.55 84.7129C1200.55 92.2863 1206.69 98.4257 1214.27 98.4257Z" fill="#492D4F"/>
<path d="M1214.27 76.3411C1218.88 76.3411 1222.64 80.0971 1222.64 84.7129C1222.64 89.3287 1218.88 93.0846 1214.27 93.0846C1209.65 93.0846 1205.9 89.3287 1205.9 84.7129C1205.9 80.0971 1209.65 76.3411 1214.27 76.3411ZM1214.27 71C1206.69 71 1200.55 77.1391 1200.55 84.7129C1200.55 92.2866 1206.69 98.4257 1214.27 98.4257C1221.84 98.4257 1227.98 92.2866 1227.98 84.7129C1227.98 77.1391 1221.84 71 1214.27 71Z" fill="#F5B800"/>
<path d="M1408.69 98.4257C1416.27 98.4257 1422.41 92.2863 1422.41 84.7129C1422.41 77.1395 1416.27 71 1408.69 71C1401.12 71 1394.98 77.1395 1394.98 84.7129C1394.98 92.2863 1401.12 98.4257 1408.69 98.4257Z" fill="#492D4F"/>
<path d="M1408.69 76.3411C1413.31 76.3411 1417.07 80.0971 1417.07 84.7129C1417.07 89.3287 1413.31 93.0846 1408.69 93.0846C1404.08 93.0846 1400.32 89.3287 1400.32 84.7129C1400.32 80.0971 1404.08 76.3411 1408.69 76.3411ZM1408.69 71C1401.12 71 1394.98 77.1391 1394.98 84.7129C1394.98 92.2866 1401.12 98.4257 1408.69 98.4257C1416.27 98.4257 1422.41 92.2866 1422.41 84.7129C1422.41 77.1391 1416.27 71 1408.69 71Z" fill="#F5B800"/>
<path d="M1434.97 46.9469C1437.25 69.5323 1403 107.241 1400 82.7412C1401 79.7412 1428.14 74.8375 1430.97 48.9469C1430.97 21.9546 1399.87 22.2163 1400.5 14.2411C1402 -4.75917 1434.97 23.5209 1434.97 46.9469Z" fill="#8C837D"/>
<path d="M1046.97 47.9469C1049.25 70.5323 1015 108.241 1012 83.7412C1013 80.7412 1040.14 75.8375 1042.97 49.9469C1042.97 22.9546 1011.87 23.2163 1012.5 15.2411C1014 -3.75917 1046.97 24.5209 1046.97 47.9469Z" fill="#8C837D"/>
<path d="M851.975 47.9469C854.245 70.5323 820 108.241 817 83.7412C818 80.7412 845.141 75.8375 847.975 49.9469C847.975 22.9546 816.87 23.2163 817.5 15.2411C818.999 -3.75917 851.975 24.5209 851.975 47.9469Z" fill="#8C837D"/>
<path d="M656.975 46.9469C659.245 69.5323 625 107.241 622 82.7412C623 79.7412 650.141 74.8375 652.975 48.9469C652.975 21.9546 621.87 22.2163 622.5 14.2411C623.999 -4.75917 656.975 23.5209 656.975 46.9469Z" fill="#8C837D"/>
<path d="M462.975 46.9469C465.245 69.5323 431 107.241 428 82.7412C429 79.7412 456.141 74.8375 458.975 48.9469C458.975 21.9546 427.87 22.2163 428.5 14.2411C429.999 -4.75917 462.975 23.5209 462.975 46.9469Z" fill="#8C837D"/>
<path d="M1240.97 47.9469C1243.25 70.5323 1209 108.241 1206 83.7412C1207 80.7412 1234.14 75.8375 1236.97 49.9469C1236.97 22.9546 1205.87 23.2163 1206.5 15.2411C1208 -3.75917 1240.97 24.5209 1240.97 47.9469Z" fill="#8C837D"/>
<path d="M268.975 46.9469C271.245 69.5323 237 107.241 234 82.7412C235 79.7412 262.141 74.8375 264.975 48.9469C264.975 21.9546 233.87 22.2163 234.5 14.2411C235.999 -4.75917 268.975 23.5209 268.975 46.9469Z" fill="#8C837D"/>
<path d="M73.9747 47.9469C76.2454 70.5323 42 108.241 39 83.7412C40 80.7412 67.1413 75.8375 69.9747 49.9469C69.9746 22.9546 38.8702 23.2163 39.4997 15.2411C40.9994 -3.75917 73.9747 24.5209 73.9747 47.9469Z" fill="#8C837D"/>
<rect y="42" width="1440" height="14" fill="#D9D9D9"/>
</svg>
