<svg width="676" height="592" viewBox="0 0 676 592" fill="none" xmlns="http://www.w3.org/2000/svg">
<path d="M339.108 542.643C485.89 542.643 604.88 423.653 604.88 276.872C604.88 130.09 485.89 11.1006 339.108 11.1006C192.327 11.1006 73.3369 130.09 73.3369 276.872C73.3369 423.653 192.327 542.643 339.108 542.643Z" fill="#4B0B35"/>
<path d="M170.908 393.506L166.666 380.78C172.865 378.714 176.957 375.448 179.177 370.794C183.48 361.773 179.395 350.306 179.353 350.192L191.912 345.482C192.167 346.163 198.084 362.313 191.283 376.57C187.465 384.574 180.609 390.271 170.908 393.506Z" fill="#5165FF"/>
<path d="M479.694 503.273L475.452 490.547C481.651 488.482 485.744 485.216 487.964 480.561C492.266 471.541 488.181 460.074 488.14 459.96L500.698 455.25C500.953 455.931 506.87 472.08 500.069 486.337C496.25 494.342 489.395 500.039 479.694 503.273Z" fill="#DE3600"/>
<path d="M41.6201 222.161L39.1738 235.349C32.7505 234.157 27.588 235.036 23.393 238.032C15.2611 243.843 13.2877 255.855 13.2692 255.976L0 254.019C0.105631 253.3 2.74471 236.303 15.5948 227.12C22.8095 221.965 31.5651 220.296 41.6201 222.161Z" fill="#DE3600"/>
<path d="M636.207 339.451L633.761 352.639C627.337 351.447 622.175 352.326 617.98 355.322C609.848 361.134 607.875 373.145 607.856 373.266L594.587 371.309C594.693 370.59 597.332 353.594 610.182 344.41C617.396 339.255 626.152 337.586 636.207 339.451Z" fill="#5165FF"/>
<path d="M99.3809 41.6552L110.878 34.7456C114.243 40.3457 118.322 43.6303 123.347 44.7839C133.089 47.0205 143.392 40.5385 143.492 40.4731L150.821 51.7068C150.213 52.1042 135.738 61.393 120.343 57.8586C111.703 55.87 104.649 50.4192 99.3809 41.6552Z" fill="#5165FF"/>
<path d="M473.925 56.5238L462.718 49.1515C466.31 43.6939 467.504 38.5951 466.368 33.5651C464.167 23.8153 453.862 17.3349 453.76 17.2729L460.711 5.80273C461.333 6.17831 475.974 15.2055 479.453 30.6125C481.405 39.2625 479.545 47.9795 473.925 56.5238Z" fill="#5165FF"/>
<path d="M540.678 203.929L552.274 197.186C555.557 202.834 559.589 206.176 564.597 207.403C574.305 209.781 584.701 203.446 584.803 203.383L591.969 214.72C591.355 215.109 576.746 224.188 561.405 220.431C552.792 218.32 545.818 212.769 540.678 203.929Z" fill="#DE3600"/>
<path d="M22.2363 514.62L33.8322 507.876C37.1168 513.525 41.1475 516.866 46.1558 518.094C55.8637 520.471 66.2591 514.137 66.3614 514.073L73.5275 525.411C72.9138 525.8 58.305 534.879 42.9634 531.121C34.352 529.01 27.3787 523.459 22.2363 514.62Z" fill="#DE3600"/>
<path d="M666.642 278.586C671.81 278.586 675.999 274.397 675.999 269.229C675.999 264.061 671.81 259.871 666.642 259.871C661.474 259.871 657.284 264.061 657.284 269.229C657.284 274.397 661.474 278.586 666.642 278.586Z" fill="white"/>
<path d="M236.166 31.531C241.334 31.531 245.524 27.3414 245.524 22.1734C245.524 17.0054 241.334 12.8159 236.166 12.8159C230.998 12.8159 226.809 17.0054 226.809 22.1734C226.809 27.3414 230.998 31.531 236.166 31.531Z" fill="white"/>
<path d="M247.396 439.547C252.564 439.547 256.753 435.358 256.753 430.19C256.753 425.022 252.564 420.832 247.396 420.832C242.228 420.832 238.038 425.022 238.038 430.19C238.038 435.358 242.228 439.547 247.396 439.547Z" fill="white"/>
<path d="M625.467 12.0249C628.349 12.0249 630.686 9.68806 630.686 6.80541C630.686 3.92277 628.349 1.58594 625.467 1.58594C622.584 1.58594 620.247 3.92277 620.247 6.80541C620.247 9.68806 622.584 12.0249 625.467 12.0249Z" fill="white"/>
<path d="M8.22242 33.0088C11.1051 33.0088 13.4419 30.6719 13.4419 27.7893C13.4419 24.9067 11.1051 22.5698 8.22242 22.5698C5.33977 22.5698 3.00293 24.9067 3.00293 27.7893C3.00293 30.6719 5.33977 33.0088 8.22242 33.0088Z" fill="white"/>
<path d="M110.768 179.39C113.651 179.39 115.988 177.053 115.988 174.171C115.988 171.288 113.651 168.951 110.768 168.951C107.886 168.951 105.549 171.288 105.549 174.171C105.549 177.053 107.886 179.39 110.768 179.39Z" fill="white"/>
<path d="M185.237 585.139C188.12 585.139 190.457 582.802 190.457 579.92C190.457 577.037 188.12 574.7 185.237 574.7C182.354 574.7 180.018 577.037 180.018 579.92C180.018 582.802 182.354 585.139 185.237 585.139Z" fill="white"/>
<path d="M67.325 444.768C70.2076 444.768 72.5445 442.431 72.5445 439.549C72.5445 436.666 70.2076 434.329 67.325 434.329C64.4423 434.329 62.1055 436.666 62.1055 439.549C62.1055 442.431 64.4423 444.768 67.325 444.768Z" fill="white"/>
<path d="M509.82 384.876C512.703 384.876 515.04 382.539 515.04 379.656C515.04 376.773 512.703 374.437 509.82 374.437C506.937 374.437 504.601 376.773 504.601 379.656C504.601 382.539 506.937 384.876 509.82 384.876Z" fill="white"/>
<path d="M549.124 551.45C552.006 551.45 554.343 549.113 554.343 546.23C554.343 543.348 552.006 541.011 549.124 541.011C546.241 541.011 543.904 543.348 543.904 546.23C543.904 549.113 546.241 551.45 549.124 551.45Z" fill="white"/>
<path d="M354.392 462.743L353.768 457.751C365.805 456.245 378.964 442.611 381.926 428.572C382.223 427.165 382.444 425.666 382.54 424.098C379.903 426.355 377.02 428.302 373.912 429.903C360.099 437.017 343.876 435.981 331.564 427.202C322.646 420.842 316.46 408.785 323.955 397.344C333.556 382.688 354.09 384.324 369.412 393.519C379.141 399.357 383.948 406.302 386.094 412.845C392.766 403.656 396.483 391.36 396.483 377.427C396.483 367.995 394.82 357.97 391.019 348.886C390.472 349.359 389.907 349.825 389.322 350.283C373.367 362.821 346.45 371.288 325.06 360.256C314.001 354.552 307.971 344.695 308.518 333.213C309.086 321.302 325.055 312.335 344.878 312.813C362.291 313.227 381.65 321.045 392.627 340.042C403.676 326.323 401.513 308.579 398.401 292.639C397.159 286.276 395.286 281.241 392.746 277.314C392.27 278.105 391.768 278.89 391.247 279.666C380.464 295.71 362.963 304.163 344.464 302.256C318.932 299.637 304.248 292.545 304.176 282.793C304.1 272.644 320.267 264.181 345.363 261.228C363.384 259.105 380.411 258.391 391.629 268.376C396.082 257.605 396.139 246.076 391.425 237.228C386.878 228.692 375.974 218.515 349.867 218.515C307.336 218.515 297.373 221.566 295.056 222.898C295.393 223.137 295.812 223.382 296.131 223.523L294.115 228.13C291.572 227.019 289.064 224.827 289.652 222.017C290.276 219.036 291.436 213.486 349.868 213.486C372.185 213.486 388.521 221.078 395.864 234.864C401.693 245.803 401.394 259.63 395.375 272.406C398.976 277.071 401.711 283.34 403.337 291.678C405.873 304.669 410.374 327.74 395.115 344.864C399.126 353.604 401.513 364.367 401.513 377.43C401.513 394.232 396.438 408.901 387.441 419.234C387.845 423.223 387.436 426.823 386.847 429.615C383.432 445.798 368.568 460.97 354.392 462.743ZM345.729 391.482C338.599 391.482 332.141 394.027 328.16 400.102C324.049 406.378 324.41 415.925 334.483 423.108C345.254 430.788 359.479 431.679 371.606 425.433C375.536 423.408 379.066 420.752 382.149 417.559C380.897 410.913 376.752 403.792 366.821 397.833C360.275 393.903 352.682 391.482 345.729 391.482ZM343.395 317.824C327.223 317.824 313.962 324.69 313.545 333.452C313.089 343.023 317.998 350.954 327.367 355.786C340.979 362.808 365.198 362.841 386.215 346.328C387.124 345.615 387.979 344.886 388.787 344.14C381.111 329.549 367.187 318.374 344.761 317.839C344.303 317.831 343.847 317.824 343.395 317.824ZM363.56 264.995C358.305 264.995 352.449 265.458 345.952 266.223C322.025 269.038 309.162 276.841 309.206 282.755C309.246 288.149 320.322 294.723 344.977 297.251C361.617 298.965 377.346 291.334 387.074 276.86C387.9 275.631 388.663 274.375 389.362 273.1C383.405 267.153 374.893 264.995 363.56 264.995Z" fill="white"/>
<path d="M377.426 590.728L270.243 558.764C265.071 557.222 262.1 551.727 263.642 546.553L296.389 436.744C297.932 431.572 303.426 428.601 308.6 430.143L415.784 462.107C420.956 463.65 423.927 469.144 422.385 474.318L389.638 584.127C388.093 589.3 382.599 592.271 377.426 590.728Z" fill="#F5B800"/>
<path d="M371.747 577.476L282.253 550.787C277.934 549.499 275.454 544.91 276.742 540.591L304.085 448.905C305.373 444.586 309.962 442.106 314.281 443.394L403.775 470.083C408.094 471.371 410.574 475.96 409.286 480.279L381.943 571.965C380.655 576.284 376.068 578.765 371.747 577.476Z" fill="#5165FF"/>
<path d="M360.036 556.964L303.287 540.04C298.325 538.561 295.494 533.321 296.974 528.36L314.313 470.221C315.791 465.26 321.031 462.428 325.992 463.907L382.741 480.831C387.702 482.31 390.534 487.551 389.055 492.511L371.717 550.65C370.236 555.611 364.995 558.443 360.036 556.964ZM323.595 471.942C323.073 471.786 322.5 472.096 322.346 472.617L305.007 530.756C304.851 531.277 305.161 531.851 305.683 532.005L362.431 548.929C362.955 549.085 363.526 548.775 363.682 548.254L381.021 490.115C381.177 489.592 380.867 489.02 380.345 488.864L323.595 471.942Z" fill="#F5B800"/>
<path d="M350.252 532.774L324.723 525.16C321.715 524.263 319.998 521.085 320.895 518.079L328.695 491.925C329.592 488.917 332.768 487.202 335.776 488.099L361.305 495.712C364.313 496.609 366.028 499.785 365.133 502.791L357.333 528.946C356.434 531.954 353.258 533.671 350.252 532.774ZM327.61 519.023L351.194 526.057L358.414 501.847L334.83 494.814L327.61 519.023Z" fill="#F5B800"/>
<path d="M537.812 91.2721C534.667 82.493 525.001 77.9241 516.22 81.0695C512.701 82.3304 509.875 84.6476 507.935 87.5264C500.115 81.8224 489.7 79.9646 479.901 83.4739C474.553 85.3903 470.106 88.6766 466.751 92.7727C458.899 90.1035 450.125 89.9626 441.71 92.9773C434.376 95.6046 428.352 100.254 424.03 106.072C413.304 91.6812 394.066 85.3098 376.291 91.6779C354.498 99.4845 343.16 123.479 350.967 145.273C357.888 164.595 377.535 175.686 397.09 172.515C397.337 176.337 398.103 180.186 399.458 183.969C407.264 205.762 431.259 217.1 453.053 209.293C474.132 201.743 485.428 179.046 479.08 157.846C484.091 153.613 487.869 148.178 490.136 142.149C493.509 142.146 496.936 141.608 500.293 140.405C512.038 136.199 519.568 125.471 520.279 113.758C522.687 113.994 525.18 113.733 527.608 112.864C536.39 109.719 540.958 100.051 537.812 91.2721Z" fill="#5165FF"/>
<path d="M224.298 146.124C202.504 153.931 191.166 177.926 198.973 199.719C199.022 199.855 199.082 199.984 199.132 200.12C189.215 192.491 175.746 189.9 163.092 194.434C153.473 197.88 146.109 204.804 141.887 213.28C136.975 212.465 131.795 212.842 126.774 214.64C116.583 218.29 109.593 226.856 107.448 236.706C103.808 235.31 99.6736 235.147 95.715 236.566C86.9359 239.711 82.367 249.377 85.5124 258.158C88.6579 266.937 98.3239 271.506 107.105 268.36C110.069 267.299 112.539 265.481 114.408 263.216C122.367 272.138 135.219 275.85 147.167 271.569C151.681 269.953 155.545 267.351 158.667 264.123C167.636 268.687 178.382 269.71 188.608 266.088C198.245 284.099 219.869 292.821 239.676 285.726C261.469 277.919 272.807 253.924 265 232.131C263.646 228.346 261.791 224.888 259.556 221.779C276.677 211.813 284.812 190.769 277.891 171.447C270.086 149.655 246.091 138.317 224.298 146.124Z" fill="#5165FF"/>
<path d="M306.494 6.06024C269.307 25.5834 267.686 54.7257 270.254 70.9191C270.199 70.9476 270.142 70.9727 270.087 71.0012C270.035 71.028 269.988 71.0582 269.936 71.085C258.065 59.7759 233.156 44.5634 195.969 64.0849C142.077 92.3788 180.167 187.572 180.167 187.572L192.954 180.859C192.954 180.859 179.206 111.025 210.556 109.625C228.586 108.82 238.558 140.768 238.558 140.768C238.558 140.768 241.674 149.986 244.065 154.543C259.948 184.799 297.351 196.448 327.607 180.565C357.862 164.682 369.512 127.279 353.629 97.0232C351.234 92.4643 345.43 84.6611 345.43 84.6611C345.43 84.6611 328.562 60.5035 335.697 43.9279C345.418 21.3431 384.325 81.4419 384.325 81.4419L397.113 74.7285C397.113 74.7285 360.386 -22.2336 306.494 6.06024Z" fill="#F5B800"/>
<mask id="mask0_176_1233" style="mask-type:luminance" maskUnits="userSpaceOnUse" x="167" y="0" width="231" height="188">
<path d="M306.494 6.06024C269.307 25.5834 267.686 54.7257 270.254 70.9191C270.199 70.9476 270.142 70.9727 270.087 71.0012C270.035 71.028 269.988 71.0582 269.936 71.085C258.065 59.7759 233.156 44.5634 195.969 64.0849C142.077 92.3788 180.167 187.572 180.167 187.572L192.954 180.859C192.954 180.859 179.206 111.025 210.556 109.625C228.586 108.82 238.558 140.768 238.558 140.768L238.743 140.484C239.916 145.266 241.672 149.986 244.065 154.543C259.948 184.799 297.351 196.448 327.607 180.565C357.862 164.682 369.512 127.279 353.629 97.0232C351.234 92.4643 348.345 88.3363 345.072 84.6527L345.43 84.6611C345.43 84.6611 328.562 60.5035 335.697 43.9279C345.418 21.3431 384.325 81.4419 384.325 81.4419L397.113 74.7285C397.111 74.7268 360.386 -22.2336 306.494 6.06024Z" fill="white"/>
</mask>
<g mask="url(#mask0_176_1233)">
<path d="M228.54 122.808L219.045 119.666C219.712 117.649 235.679 70.1216 261.334 56.6528L265.983 65.5073C257.017 70.2138 247.724 81.5229 239.108 98.2092C232.42 111.165 228.579 122.694 228.54 122.808Z" fill="#DE3600"/>
<path d="M210.426 118.221L200.424 118.326C200.418 117.698 200.294 102.72 203.058 85.9901C206.943 62.4764 214.505 47.6177 225.533 41.8281L230.182 50.6827C222.307 54.8173 216.18 67.934 212.927 87.6198C210.302 103.496 210.424 118.075 210.426 118.221Z" fill="#DE3600"/>
<path d="M193.211 134.095C173.081 118.871 169.215 76.7262 169.061 74.9389L179.023 74.0737C179.032 74.1743 179.942 84.2964 183.036 95.899C186.961 110.619 192.566 121.068 199.242 126.118L193.211 134.095Z" fill="#DE3600"/>
<path d="M197.462 151.904C189.186 155.522 178.785 153.221 166.55 145.064C158.123 139.448 151.833 133.014 151.569 132.743L158.739 125.771L155.154 129.257L158.737 125.768C164.439 131.616 183.059 147.286 193.458 142.741L197.462 151.904Z" fill="#DE3600"/>
<path d="M267.27 51.5966L266.536 61.5693L343.771 67.2537L344.505 57.281L267.27 51.5966Z" fill="#5165FF"/>
<path d="M284.778 6.58718L279.379 15.0039L340.632 54.2939L346.031 45.8772L284.778 6.58718Z" fill="#5165FF"/>
<path d="M338.679 -6.76329L329.161 -3.69287L349.257 58.6045L358.775 55.5341L338.679 -6.76329Z" fill="#5165FF"/>
<path d="M364.773 8.88343L356.455 65.084L366.348 66.5482L374.666 10.3476L364.773 8.88343Z" fill="#5165FF"/>
</g>
<path d="M185.245 212.378C196.548 212.378 205.712 203.214 205.712 191.911C205.712 180.607 196.548 171.443 185.245 171.443C173.941 171.443 164.777 180.607 164.777 191.911C164.777 203.214 173.941 212.378 185.245 212.378Z" fill="#DE3600"/>
<path d="M396.11 101.675C407.413 101.675 416.577 92.5111 416.577 81.2074C416.577 69.9037 407.413 60.7402 396.11 60.7402C384.806 60.7402 375.643 69.9037 375.643 81.2074C375.643 92.5111 384.806 101.675 396.11 101.675Z" fill="#DE3600"/>
<path d="M359.481 284.199C411.23 265.663 439.094 211.312 421.718 162.803C404.343 114.293 348.307 89.9944 296.559 108.53C244.81 127.066 216.946 181.417 234.322 229.926C251.697 278.436 307.733 302.735 359.481 284.199Z" fill="white"/>
<path opacity="0.27" d="M270.956 261.337C285.532 261.337 297.347 249.522 297.347 234.947C297.347 220.371 285.532 208.556 270.956 208.556C256.381 208.556 244.565 220.371 244.565 234.947C244.565 249.522 256.381 261.337 270.956 261.337Z" fill="#DE3600"/>
<path opacity="0.27" d="M396.643 216.314C411.218 216.314 423.034 204.498 423.034 189.923C423.034 175.348 411.218 163.532 396.643 163.532C382.068 163.532 370.252 175.348 370.252 189.923C370.252 204.498 382.068 216.314 396.643 216.314Z" fill="#DE3600"/>
<path d="M259.16 208.413C266.192 209.066 272.78 212.329 277.533 217.589C277.867 210.508 280.883 203.805 285.901 198.834C278.869 198.18 272.282 194.917 267.528 189.657C267.195 196.74 264.178 203.443 259.16 208.413Z" fill="#492D4F"/>
<path d="M362.166 171.516C369.198 172.17 375.786 175.433 380.539 180.692C380.873 173.612 383.889 166.909 388.907 161.937C381.875 161.283 375.288 158.02 370.534 152.761C370.201 159.841 367.183 166.545 362.166 171.516Z" fill="#492D4F"/>
<path d="M363.025 302.095C295.026 326.454 251.977 293.791 247.293 289.986C247.293 289.986 222.909 269.695 247.936 243.516C272.964 217.336 305.812 245.834 338.772 234.386C384.314 218.567 383.464 173.072 420.957 179.705C441.136 183.274 454.229 201.867 450.14 221.528C449.003 226.987 436.913 275.629 363.025 302.095ZM376.978 209.01C376.975 209.021 376.973 209.033 376.972 209.045C376.973 209.033 376.977 209.02 376.978 209.01Z" fill="#DE3600"/>
<path d="M417.16 210.875C407.804 235.341 384.855 257.465 353.8 268.589C322.894 279.661 291.275 277.218 268.536 264.42" stroke="#722C19" stroke-width="6.25601" stroke-miterlimit="10" stroke-linecap="round" stroke-linejoin="round"/>
<path d="M337.027 223.876C347.038 220.29 351.43 206.988 346.836 194.165C342.243 181.341 330.404 173.853 320.393 177.439C310.382 181.025 305.99 194.327 310.583 207.15C315.176 219.973 327.015 227.462 337.027 223.876Z" fill="#DE3600"/>
<path opacity="0.55" d="M339.298 196.157C342.318 192.676 341.335 186.877 337.102 183.206C332.869 179.535 326.99 179.381 323.97 182.862C320.951 186.344 321.934 192.142 326.167 195.813C330.4 199.485 336.279 199.639 339.298 196.157Z" fill="white"/>
</svg>
