<svg width="681" height="78" viewBox="0 0 681 78" fill="none" xmlns="http://www.w3.org/2000/svg">
<g filter="url(#filter0_d_459_2428)">
<rect width="665.216" height="62.7203" rx="19.0062" fill="#A0153E"/>
<path d="M622.632 33.9091C624.704 33.9091 626.692 33.2195 628.158 31.992C629.624 30.7645 630.447 29.0996 630.447 27.3636V17.5455C630.447 15.8095 629.624 14.1446 628.158 12.9171C626.692 11.6896 624.704 11 622.632 11C620.559 11 618.571 11.6896 617.105 12.9171C615.639 14.1446 614.816 15.8095 614.816 17.5455V27.3636C614.816 29.0996 615.639 30.7645 617.105 31.992C618.571 33.2195 620.559 33.9091 622.632 33.9091ZM618.724 17.5455C618.724 16.6775 619.135 15.845 619.868 15.2313C620.601 14.6175 621.595 14.2727 622.632 14.2727C623.668 14.2727 624.662 14.6175 625.395 15.2313C626.128 15.845 626.539 16.6775 626.539 17.5455V27.3636C626.539 28.2316 626.128 29.064 625.395 29.6778C624.662 30.2916 623.668 30.6364 622.632 30.6364C621.595 30.6364 620.601 30.2916 619.868 29.6778C619.135 29.064 618.724 28.2316 618.724 27.3636V17.5455ZM638.263 27.3636C638.263 26.9296 638.057 26.5134 637.691 26.2066C637.324 25.8997 636.827 25.7273 636.309 25.7273C635.791 25.7273 635.294 25.8997 634.928 26.2066C634.561 26.5134 634.355 26.9296 634.355 27.3636C634.355 29.9676 633.12 32.4649 630.921 34.3061C628.723 36.1474 625.741 37.1818 622.632 37.1818C619.522 37.1818 616.54 36.1474 614.342 34.3061C612.143 32.4649 610.908 29.9676 610.908 27.3636C610.908 26.9296 610.702 26.5134 610.336 26.2066C609.969 25.8997 609.472 25.7273 608.954 25.7273C608.436 25.7273 607.939 25.8997 607.572 26.2066C607.206 26.5134 607 26.9296 607 27.3636C607.003 30.5501 608.395 33.6261 610.913 36.015C613.431 38.4039 616.903 39.9417 620.678 40.34V43.7273H616.77C616.252 43.7273 615.755 43.8997 615.388 44.2066C615.022 44.5134 614.816 44.9296 614.816 45.3636C614.816 45.7976 615.022 46.2138 615.388 46.5207C615.755 46.8276 616.252 47 616.77 47H628.493C629.012 47 629.509 46.8276 629.875 46.5207C630.242 46.2138 630.447 45.7976 630.447 45.3636C630.447 44.9296 630.242 44.5134 629.875 44.2066C629.509 43.8997 629.012 43.7273 628.493 43.7273H624.586V40.34C628.361 39.9417 631.833 38.4039 634.351 36.015C636.869 33.6261 638.26 30.5501 638.263 27.3636Z" fill="black"/>
<path d="M586.88 13.7159V45.5405H584.991V13.7159H586.88Z" fill="black"/>
<g clip-path="url(#clip0_459_2428)">
<path d="M33.934 22.1723L33.3551 23.1372C32.5015 22.6764 31.5608 22.3798 30.5865 22.2644C29.6123 22.149 28.6237 22.2171 27.6771 22.4647C26.7306 22.7124 25.8447 23.1347 25.07 23.7076C24.2953 24.2806 23.647 24.9929 23.1621 25.8039L22.1465 25.2547C23.2799 23.3615 25.1582 21.9733 27.3686 21.3953C29.5789 20.8173 31.9405 21.0968 33.934 22.1723Z" fill="#231F20"/>
<path d="M40.1839 19.3348C34.8636 13.9168 25.8941 13.6199 20.1902 18.6735C17.4889 21.0731 15.8842 24.3821 15.7196 27.8919C15.555 31.4017 16.8437 34.8332 19.3097 37.4515C21.7756 40.0697 25.2228 41.6665 28.9128 41.8999C32.6029 42.1332 36.2424 40.9846 39.0519 38.6999C39.1998 38.5797 39.3454 38.456 39.4886 38.3288C39.6324 38.2019 39.7722 38.072 39.9089 37.9407C42.4727 35.4721 43.9328 32.1577 43.9841 28.6902C44.0353 25.2228 42.6737 21.8707 40.1839 19.3348ZM41.3347 28.8867C41.2313 31.7155 39.9763 34.3957 37.8342 36.363C35.692 38.3302 32.8298 39.4309 29.8503 39.4332C29.7144 39.4332 29.5777 39.431 29.4402 39.4265C27.9301 39.3804 26.4446 39.0503 25.0696 38.4552C23.6947 37.8602 22.4576 37.012 21.43 35.9598C17.1042 31.5512 17.3582 24.6266 21.9957 20.5171C23.659 19.0429 25.7452 18.0705 27.9903 17.7227C30.2354 17.375 32.5387 17.6676 34.6088 18.5635C36.6789 19.4594 38.4228 20.9184 39.62 22.7559C40.8172 24.5934 41.414 26.727 41.3347 28.8867Z" fill="#231F20"/>
<path d="M33.934 22.1723L33.3551 23.1372C32.5015 22.6764 31.5608 22.3798 30.5865 22.2644C29.6123 22.149 28.6237 22.2171 27.6771 22.4647C26.7306 22.7124 25.8447 23.1347 25.07 23.7076C24.2953 24.2806 23.647 24.9929 23.1621 25.8039L22.1465 25.2547C23.2799 23.3615 25.1582 21.9733 27.3686 21.3953C29.5789 20.8173 31.9405 21.0968 33.934 22.1723Z" fill="white"/>
<path d="M53.6615 48.7849L44.042 39.3384L40.2139 42.7324L49.835 52.1842C50.0689 52.4226 50.3501 52.6148 50.6626 52.7495C50.975 52.8843 51.3123 52.959 51.6553 52.9694H51.7482C52.2582 52.9688 52.7569 52.8269 53.1832 52.5609C53.6095 52.2949 53.9448 51.9165 54.1479 51.4722C54.3511 51.0278 54.4132 50.5367 54.3268 50.0592C54.2404 49.5818 54.0092 49.1386 53.6615 48.7842V48.7849Z" fill="#231F20"/>
<path d="M39.5171 37.5405L38.6602 38.2999L42.1076 41.8107L42.9645 41.0513L39.5171 37.5405Z" fill="#231F20"/>
<path d="M33.934 22.1723L33.3551 23.1372C32.5015 22.6764 31.5608 22.3798 30.5865 22.2644C29.6123 22.149 28.6237 22.2171 27.6771 22.4647C26.7306 22.7124 25.8447 23.1347 25.07 23.7076C24.2953 24.2806 23.647 24.9929 23.1621 25.8039L22.1465 25.2547C23.2799 23.3615 25.1582 21.9733 27.3686 21.3953C29.5789 20.8173 31.9405 21.0968 33.934 22.1723Z" fill="#231F20"/>
</g>
<path d="M94.6529 26.6912C94.5395 25.7337 94.0797 24.9903 93.2733 24.4612C92.467 23.932 91.478 23.6674 90.3063 23.6674C89.4496 23.6674 88.7 23.806 88.0575 24.0832C87.4212 24.3604 86.9236 24.7415 86.5645 25.2265C86.2117 25.7116 86.0353 26.2628 86.0353 26.8801C86.0353 27.3967 86.1582 27.8408 86.4039 28.2125C86.6558 28.5778 86.9771 28.8833 87.3677 29.129C87.7582 29.3684 88.1677 29.5668 88.596 29.7243C89.0244 29.8755 89.4181 29.9983 89.7772 30.0928L91.7426 30.622C92.2465 30.7543 92.8072 30.9369 93.4245 31.17C94.0482 31.4031 94.6435 31.7212 95.2104 32.1244C95.7837 32.5212 96.2561 33.0315 96.6278 33.6551C96.9994 34.2788 97.1853 35.0442 97.1853 35.9513C97.1853 36.997 96.9112 37.9419 96.3632 38.786C95.8215 39.6301 95.0277 40.301 93.982 40.7986C92.9426 41.2963 91.6796 41.5451 90.1929 41.5451C88.8071 41.5451 87.607 41.3215 86.5928 40.8742C85.5849 40.427 84.7912 39.8033 84.2117 39.0033C83.6384 38.2033 83.314 37.2741 83.2384 36.2158H85.6574C85.7204 36.9466 85.9661 37.5513 86.3944 38.0301C86.8291 38.5025 87.3771 38.8553 88.0386 39.0884C88.7063 39.3151 89.4244 39.4285 90.1929 39.4285C91.0875 39.4285 91.8906 39.2836 92.6025 38.9939C93.3143 38.6978 93.8781 38.2883 94.2938 37.7655C94.7096 37.2363 94.9175 36.619 94.9175 35.9135C94.9175 35.2709 94.738 34.7481 94.3789 34.3449C94.0198 33.9418 93.5474 33.6142 92.9615 33.3622C92.3757 33.1102 91.7426 32.8898 91.0623 32.7008L88.6811 32.0204C87.1692 31.5858 85.9724 30.9653 85.0904 30.159C84.2085 29.3527 83.7676 28.2975 83.7676 26.9935C83.7676 25.91 84.0605 24.9651 84.6463 24.1588C85.2385 23.3462 86.0322 22.7162 87.0275 22.269C88.0291 21.8154 89.1472 21.5887 90.3819 21.5887C91.6292 21.5887 92.7379 21.8123 93.708 22.2595C94.6781 22.7005 95.4466 23.3052 96.0136 24.0738C96.5868 24.8423 96.8892 25.7148 96.9207 26.6912H94.6529ZM106.821 41.5073C105.423 41.5073 104.216 41.1987 103.202 40.5813C102.194 39.9577 101.416 39.0884 100.868 37.9734C100.326 36.8521 100.055 35.5481 100.055 34.0614C100.055 32.5748 100.326 31.2645 100.868 30.1306C101.416 28.9904 102.178 28.1022 103.155 27.466C104.137 26.8234 105.284 26.5022 106.594 26.5022C107.35 26.5022 108.097 26.6282 108.834 26.8801C109.571 27.1321 110.242 27.5416 110.846 28.1085C111.451 28.6692 111.933 29.4125 112.292 30.3385C112.651 31.2645 112.831 32.4047 112.831 33.7591V34.704H101.643V32.7764H110.563C110.563 31.9574 110.399 31.2267 110.071 30.5842C109.75 29.9416 109.29 29.4345 108.692 29.0629C108.1 28.6912 107.401 28.5054 106.594 28.5054C105.706 28.5054 104.937 28.7259 104.289 29.1668C103.646 29.6015 103.152 30.1684 102.805 30.8677C102.459 31.5669 102.285 32.3165 102.285 33.1165V34.4016C102.285 35.4977 102.474 36.4269 102.852 37.1891C103.237 37.945 103.769 38.5214 104.449 38.9183C105.13 39.3088 105.92 39.5041 106.821 39.5041C107.407 39.5041 107.936 39.4222 108.408 39.2584C108.887 39.0884 109.3 38.8364 109.646 38.5025C109.993 38.1623 110.26 37.7403 110.449 37.2363L112.604 37.8411C112.377 38.5718 111.996 39.2143 111.46 39.7687C110.925 40.3167 110.264 40.7451 109.476 41.0538C108.689 41.3561 107.804 41.5073 106.821 41.5073ZM120.494 41.5451C119.574 41.5451 118.739 41.3719 117.99 41.0254C117.24 40.6727 116.645 40.1656 116.204 39.5041C115.763 38.8364 115.542 38.0301 115.542 37.0852C115.542 36.2536 115.706 35.5796 116.034 35.063C116.361 34.5402 116.799 34.1307 117.347 33.8347C117.895 33.5386 118.5 33.3181 119.161 33.1732C119.829 33.022 120.5 32.9024 121.174 32.8142C122.056 32.7008 122.771 32.6157 123.319 32.559C123.873 32.496 124.277 32.3921 124.529 32.2472C124.787 32.1023 124.916 31.8504 124.916 31.4913V31.4157C124.916 30.4834 124.661 29.759 124.151 29.2424C123.647 28.7259 122.881 28.4676 121.854 28.4676C120.79 28.4676 119.955 28.7007 119.35 29.1668C118.746 29.633 118.321 30.1306 118.075 30.6598L115.958 29.9038C116.336 29.0219 116.84 28.3353 117.47 27.8439C118.106 27.3463 118.799 26.9998 119.549 26.8045C120.305 26.603 121.048 26.5022 121.779 26.5022C122.245 26.5022 122.78 26.5589 123.385 26.6723C123.996 26.7793 124.585 27.003 125.152 27.3431C125.725 27.6833 126.201 28.1967 126.579 28.8833C126.957 29.57 127.146 30.4897 127.146 31.6425V41.205H124.916V39.2395H124.803C124.651 39.5545 124.399 39.8915 124.047 40.2506C123.694 40.6097 123.225 40.9152 122.639 41.1672C122.053 41.4191 121.338 41.5451 120.494 41.5451ZM120.834 39.5419C121.716 39.5419 122.459 39.3687 123.064 39.0222C123.675 38.6758 124.135 38.2285 124.444 37.6804C124.758 37.1324 124.916 36.556 124.916 35.9513V33.9103C124.821 34.0236 124.614 34.1276 124.292 34.2221C123.977 34.3103 123.612 34.389 123.196 34.4583C122.787 34.5213 122.387 34.578 121.996 34.6284C121.612 34.6725 121.3 34.7103 121.061 34.7418C120.481 34.8174 119.939 34.9402 119.436 35.1103C118.938 35.2741 118.535 35.5229 118.226 35.8568C117.924 36.1843 117.772 36.6316 117.772 37.1985C117.772 37.9734 118.059 38.5592 118.632 38.9561C119.212 39.3466 119.946 39.5419 120.834 39.5419ZM131.216 41.205V26.6912H133.371V28.8833H133.522C133.786 28.1652 134.265 27.5825 134.958 27.1353C135.651 26.688 136.432 26.4644 137.301 26.4644C137.465 26.4644 137.67 26.4675 137.916 26.4738C138.161 26.4801 138.347 26.4896 138.473 26.5022V28.77C138.397 28.7511 138.224 28.7227 137.953 28.6849C137.689 28.6408 137.408 28.6188 137.112 28.6188C136.407 28.6188 135.777 28.7668 135.223 29.0629C134.675 29.3527 134.24 29.7558 133.919 30.2724C133.604 30.7826 133.446 31.3653 133.446 32.0204V41.205H131.216ZM146.571 41.5073C145.21 41.5073 144.039 41.1861 143.056 40.5435C142.073 39.901 141.317 39.0159 140.788 37.8883C140.259 36.7607 139.994 35.4725 139.994 34.0236C139.994 32.5496 140.265 31.2488 140.807 30.1212C141.355 28.9873 142.117 28.1022 143.094 27.466C144.076 26.8234 145.223 26.5022 146.533 26.5022C147.554 26.5022 148.473 26.6912 149.292 27.0691C150.111 27.4471 150.782 27.9762 151.305 28.6566C151.828 29.3369 152.152 30.1306 152.278 31.0377H150.048C149.878 30.3763 149.5 29.7905 148.914 29.2802C148.335 28.7637 147.554 28.5054 146.571 28.5054C145.702 28.5054 144.939 28.7322 144.284 29.1857C143.635 29.633 143.128 30.2661 142.763 31.085C142.404 31.8976 142.224 32.852 142.224 33.9481C142.224 35.0693 142.401 36.0458 142.753 36.8773C143.113 37.7088 143.617 38.3545 144.265 38.8143C144.92 39.2742 145.689 39.5041 146.571 39.5041C147.15 39.5041 147.676 39.4033 148.149 39.2017C148.621 39.0002 149.021 38.7104 149.349 38.3324C149.677 37.9545 149.91 37.5009 150.048 36.9718H152.278C152.152 37.8285 151.84 38.6002 151.343 39.2868C150.851 39.9671 150.199 40.5089 149.387 40.912C148.58 41.3089 147.642 41.5073 146.571 41.5073ZM157.768 32.474V41.205H155.538V21.8532H157.768V28.9589H157.957C158.297 28.2093 158.807 27.614 159.488 27.1731C160.174 26.7258 161.088 26.5022 162.228 26.5022C163.217 26.5022 164.083 26.7006 164.827 27.0975C165.57 27.488 166.146 28.0896 166.556 28.9022C166.971 29.7086 167.179 30.7354 167.179 31.9826V41.205H164.949V32.1338C164.949 30.981 164.65 30.0897 164.052 29.4597C163.46 28.8235 162.638 28.5054 161.586 28.5054C160.855 28.5054 160.2 28.6597 159.62 28.9684C159.047 29.2771 158.593 29.7275 158.259 30.3196C157.932 30.9117 157.768 31.6299 157.768 32.474Z" fill="black"/>
</g>
<defs>
<filter id="filter0_d_459_2428" x="0" y="0" width="680.421" height="77.9253" filterUnits="userSpaceOnUse" color-interpolation-filters="sRGB">
<feFlood flood-opacity="0" result="BackgroundImageFix"/>
<feColorMatrix in="SourceAlpha" type="matrix" values="0 0 0 0 0 0 0 0 0 0 0 0 0 0 0 0 0 0 127 0" result="hardAlpha"/>
<feOffset dx="7.60247" dy="7.60247"/>
<feGaussianBlur stdDeviation="3.80123"/>
<feComposite in2="hardAlpha" operator="out"/>
<feColorMatrix type="matrix" values="0 0 0 0 0 0 0 0 0 0 0 0 0 0 0 0 0 0 0.25 0"/>
<feBlend mode="normal" in2="BackgroundImageFix" result="effect1_dropShadow_459_2428"/>
<feBlend mode="normal" in="SourceGraphic" in2="effect1_dropShadow_459_2428" result="shape"/>
</filter>
<clipPath id="clip0_459_2428">
<rect width="40" height="38" fill="white" transform="translate(15 15)"/>
</clipPath>
</defs>
</svg>
